<svg width="881" height="432" viewBox="0 0 881 432" fill="none" xmlns="http://www.w3.org/2000/svg">
<path d="M43.0928 289.75C37.9261 289.75 33.7594 288.333 30.5928 285.5C27.2594 282.833 25.5928 279.25 25.5928 274.75C25.5928 271.417 26.5928 268.667 28.5928 266.5C30.4261 264.333 32.8428 263.25 35.8428 263.25C38.6761 263.25 40.6761 264.083 41.8428 265.75C43.0094 267.417 43.9261 269.333 44.5928 271.5C45.4261 273.667 46.3428 275.583 47.3428 277.25C48.3428 278.917 49.9261 279.75 52.0928 279.75C55.2594 279.75 57.6761 277.917 59.3428 274.25C61.0094 270.583 61.8428 265.417 61.8428 258.75V72.5C61.8428 69 61.2594 66.6667 60.0928 65.5C59.0928 64.3333 56.8428 63.4167 53.3428 62.75L47.5928 61.75C45.4261 61.25 44.3428 60.25 44.3428 58.75C44.3428 56.9167 45.5928 56 48.0928 56H93.3428C95.8428 56 97.0928 56.9167 97.0928 58.75C97.0928 60.25 96.0094 61.25 93.8428 61.75L88.0928 62.75C84.5928 63.4167 82.2594 64.3333 81.0928 65.5C80.0928 66.6667 79.5928 69 79.5928 72.5V225C79.5928 245 76.3428 260.75 69.8428 272.25C63.3428 283.917 54.4261 289.75 43.0928 289.75ZM164.954 238.25C156.954 238.25 149.454 235.917 142.454 231.25C135.454 226.417 129.287 219.833 123.954 211.5C118.787 203.167 114.704 193.417 111.704 182.25C108.871 170.917 107.454 158.75 107.454 145.75C107.454 132.75 108.871 120.667 111.704 109.5C114.704 98.3333 118.787 88.5833 123.954 80.25C129.287 71.75 135.454 65.1667 142.454 60.5C149.454 55.8333 156.954 53.5 164.954 53.5C172.954 53.5 180.371 55.8333 187.204 60.5C194.204 65.1667 200.371 71.75 205.704 80.25C211.037 88.5833 215.121 98.3333 217.954 109.5C220.954 120.667 222.454 132.75 222.454 145.75C222.454 158.75 220.954 170.917 217.954 182.25C215.121 193.417 211.037 203.167 205.704 211.5C200.371 219.833 194.204 226.417 187.204 231.25C180.371 235.917 172.954 238.25 164.954 238.25ZM164.954 231.5C176.787 231.5 186.037 224.417 192.704 210.25C199.371 196.083 202.704 174.583 202.704 145.75C202.704 116.917 199.371 95.5 192.704 81.5C186.037 67.3333 176.787 60.25 164.954 60.25C153.287 60.25 144.037 67.3333 137.204 81.5C130.537 95.5 127.204 116.917 127.204 145.75C127.204 174.583 130.537 196.083 137.204 210.25C144.037 224.417 153.287 231.5 164.954 231.5ZM238.522 236C236.022 236 234.772 235.083 234.772 233.25C234.772 231.75 235.856 230.75 238.022 230.25L243.772 229.25C247.272 228.583 249.522 227.667 250.522 226.5C251.689 225.333 252.272 223 252.272 219.5V72.5C252.272 69 251.689 66.6667 250.522 65.5C249.522 64.3333 247.272 63.4167 243.772 62.75L238.022 61.75C235.856 61.25 234.772 60.25 234.772 58.75C234.772 56.9167 236.022 56 238.522 56H289.272C297.606 56 305.022 57.75 311.522 61.25C318.022 64.75 323.106 69.5 326.772 75.5C330.606 81.5 332.522 88.3333 332.522 96C332.522 103.5 330.272 110.5 325.772 117C321.439 123.333 315.106 128.667 306.772 133C305.772 133.5 305.272 134.167 305.272 135C305.272 135.833 305.856 136.417 307.022 136.75C318.356 140.583 327.106 146.75 333.272 155.25C339.439 163.583 342.522 173.5 342.522 185C342.522 194.833 340.272 203.667 335.772 211.5C331.272 219.167 325.022 225.167 317.022 229.5C309.189 233.833 300.272 236 290.272 236H238.522ZM283.272 133.25C292.106 133.25 299.439 129.833 305.272 123C311.272 116 314.272 107.333 314.272 97C314.272 86.6667 311.439 78.3333 305.772 72C300.106 65.5 292.606 62.25 283.272 62.25C274.439 62.25 270.022 65.5833 270.022 72.25V119.5C270.022 124.333 271.022 127.833 273.022 130C275.189 132.167 278.606 133.25 283.272 133.25ZM287.022 229.75C297.856 229.75 306.689 225.667 313.522 217.5C320.356 209.167 323.772 198.083 323.772 184.25C323.772 170.417 320.272 159.5 313.272 151.5C306.439 143.5 297.189 139.5 285.522 139.5C275.189 139.5 270.022 143.583 270.022 151.75V212.5C270.022 224 275.689 229.75 287.022 229.75Z" fill="#290102"/>
<path d="M237.64 405C235.64 405 234.64 404.083 234.64 402.25C234.64 400.583 235.556 399.583 237.39 399.25L240.89 398.75C244.39 398.25 246.64 397.25 247.64 395.75C248.806 394.25 249.39 391.75 249.39 388.25V245C249.39 242 248.89 240 247.89 239C247.056 237.833 245.473 237.083 243.14 236.75L237.89 236C236.056 235.667 235.14 234.667 235.14 233C235.14 231.333 236.056 230.333 237.89 230C242.556 229 246.473 227.833 249.64 226.5C252.806 225.167 255.473 223.833 257.64 222.5C260.306 220.833 262.306 220 263.64 220C265.473 220 266.39 221.333 266.39 224V328.75C266.39 330.417 267.056 331.5 268.39 332C269.89 332.333 271.306 331.75 272.64 330.25L301.89 298.75C305.39 294.917 306.806 291.75 306.14 289.25C305.64 286.583 303.723 284.917 300.39 284.25L294.64 283.25C292.473 282.75 291.39 281.667 291.39 280C291.39 278.333 292.556 277.5 294.89 277.5H337.89C340.223 277.5 341.39 278.417 341.39 280.25C341.39 282.083 340.306 283.083 338.14 283.25L335.89 283.5C332.056 283.833 328.223 285.333 324.39 288C320.556 290.5 315.973 294.5 310.64 300L295.14 316.5C291.64 320.333 290.806 324.083 292.64 327.75L324.14 388.25C325.973 391.583 327.973 394 330.14 395.5C332.306 397 334.973 398.083 338.14 398.75L340.64 399.25C342.64 399.75 343.64 400.75 343.64 402.25C343.64 404.083 342.473 405 340.14 405H296.64C294.306 405 293.14 404.083 293.14 402.25C293.14 400.583 294.223 399.583 296.39 399.25L300.64 398.75C306.973 397.917 308.306 393.833 304.64 386.5L280.89 340.25C280.056 338.583 278.806 337.667 277.14 337.5C275.64 337.333 274.223 337.917 272.89 339.25L270.14 342C268.64 343.5 267.64 345 267.14 346.5C266.64 348 266.39 349.667 266.39 351.5V388.25C266.39 391.75 266.89 394.25 267.89 395.75C269.056 397.25 271.39 398.167 274.89 398.5L281.64 399.25C283.473 399.583 284.39 400.583 284.39 402.25C284.39 404.083 283.39 405 281.39 405H237.64ZM367.788 253.75C364.288 253.75 361.288 252.5 358.788 250C356.455 247.5 355.288 244.333 355.288 240.5C355.288 236.667 356.455 233.583 358.788 231.25C361.288 228.75 364.288 227.5 367.788 227.5C371.288 227.5 374.205 228.75 376.538 231.25C378.871 233.583 380.038 236.667 380.038 240.5C380.038 244.333 378.871 247.5 376.538 250C374.205 252.5 371.288 253.75 367.788 253.75ZM346.788 405C344.288 405 343.038 404.083 343.038 402.25C343.038 400.75 344.121 399.75 346.288 399.25L349.288 398.75C353.455 398.083 356.121 397.083 357.288 395.75C358.455 394.25 359.038 391.75 359.038 388.25V304.25C359.038 301.25 358.538 299.25 357.538 298.25C356.705 297.083 355.121 296.333 352.788 296L347.538 295.25C345.371 295.083 344.288 294.167 344.288 292.5C344.288 291.167 345.621 290.25 348.288 289.75C353.455 288.917 357.621 287.583 360.788 285.75C363.955 283.917 367.038 281.667 370.038 279C371.538 277.5 372.788 276.75 373.788 276.75C375.288 276.75 376.038 277.75 376.038 279.75V388.25C376.038 391.75 376.538 394.25 377.538 395.75C378.538 397.25 380.455 398.167 383.288 398.5L389.538 399.25C391.371 399.583 392.288 400.5 392.288 402C392.288 404 391.038 405 388.538 405H346.788ZM402.452 405C399.952 405 398.702 404.083 398.702 402.25C398.702 400.75 399.785 399.75 401.952 399.25L404.952 398.75C408.452 398.083 410.702 397.083 411.702 395.75C412.869 394.25 413.452 391.75 413.452 388.25V304.25C413.452 301.25 412.952 299.25 411.952 298.25C411.119 297.083 409.535 296.333 407.202 296L401.952 295.25C399.785 295.083 398.702 294.167 398.702 292.5C398.702 291.167 400.035 290.25 402.702 289.75C407.869 288.917 411.785 287.583 414.452 285.75C417.285 283.917 420.202 281.667 423.202 279C424.702 277.5 425.952 276.75 426.952 276.75C428.452 276.75 429.202 277.75 429.202 279.75V291C429.202 292.5 429.702 293.5 430.702 294C431.869 294.333 433.119 293.833 434.452 292.5C441.119 286.167 446.952 281.833 451.952 279.5C457.119 277.167 462.535 276 468.202 276C475.702 276 481.702 278.667 486.202 284C490.702 289.167 492.952 296.833 492.952 307V388.25C492.952 391.75 493.452 394.25 494.452 395.75C495.619 397.083 497.952 398 501.452 398.5L506.952 399.25C508.785 399.583 509.702 400.583 509.702 402.25C509.702 404.083 508.702 405 506.702 405H464.702C462.369 405 461.202 404.083 461.202 402.25C461.202 400.583 462.119 399.583 463.952 399.25L467.452 398.75C470.952 398.25 473.202 397.25 474.202 395.75C475.369 394.25 475.952 391.75 475.952 388.25V309.75C475.952 301.583 474.452 295.833 471.452 292.5C468.452 289.167 464.202 287.5 458.702 287.5C453.369 287.5 448.535 289.083 444.202 292.25C440.035 295.25 436.702 299.333 434.202 304.5C431.702 309.5 430.452 315.083 430.452 321.25V388.25C430.452 391.75 430.952 394.25 431.952 395.75C433.119 397.25 435.452 398.167 438.952 398.5L445.702 399.25C447.535 399.583 448.452 400.5 448.452 402C448.452 404 447.202 405 444.702 405H402.452ZM542.384 407.25C535.384 407.25 529.634 405.083 525.134 400.75C520.634 396.25 518.384 390.333 518.384 383C518.384 375.833 520.634 369.083 525.134 362.75C529.634 356.25 535.8 350.417 543.634 345.25C551.467 340.083 560.384 335.917 570.384 332.75C572.55 332.083 573.634 330.667 573.634 328.5V305.75C573.634 297.75 572.384 292.083 569.884 288.75C567.384 285.25 563.967 283.5 559.634 283.5C555.467 283.5 551.634 285.417 548.134 289.25C544.8 292.917 542.384 299.167 540.884 308C540.05 313.333 538.217 317.25 535.384 319.75C532.717 322.083 529.967 323.25 527.134 323.25C522.467 323.25 520.134 320.917 520.134 316.25C520.134 311.417 521.467 306.667 524.134 302C526.967 297.167 530.634 292.833 535.134 289C539.634 285 544.55 281.833 549.884 279.5C555.217 277.167 560.55 276 565.884 276C582.384 276 590.634 285.583 590.634 304.75V381.25C590.634 388.25 592.384 391.75 595.884 391.75C598.05 391.75 600.05 390.333 601.884 387.5C603.717 384.5 604.634 379.5 604.634 372.5C604.634 369.833 605.717 368.5 607.884 368.5C609.884 368.5 610.884 369.917 610.884 372.75C610.884 384.917 608.717 393.75 604.384 399.25C600.217 404.583 595.467 407.25 590.134 407.25C586.134 407.25 582.967 405.667 580.634 402.5C578.3 399.167 576.717 395.25 575.884 390.75C575.717 389.083 574.967 388.25 573.634 388.25C572.467 388.083 571.3 388.833 570.134 390.5C566.134 396 562.05 400.167 557.884 403C553.717 405.833 548.55 407.25 542.384 407.25ZM549.134 395.75C553.467 395.75 557.467 394.25 561.134 391.25C564.8 388.083 567.8 383.917 570.134 378.75C572.467 373.583 573.634 367.75 573.634 361.25V343C573.634 339.833 571.884 338.917 568.384 340.25C558.217 343.917 550.3 349 544.634 355.5C539.134 361.833 536.384 369.5 536.384 378.5C536.384 390 540.634 395.75 549.134 395.75ZM647.522 407.25C641.689 407.25 636.856 405.25 633.022 401.25C629.356 397.083 627.522 390.333 627.522 381V287.5C627.522 285.5 626.522 284.5 624.522 284.5H617.272C614.606 284.5 613.272 283.5 613.272 281.5C613.272 280.167 614.022 279 615.522 278C621.022 274.167 625.439 270.083 628.772 265.75C632.106 261.25 635.022 255.167 637.522 247.5C638.689 244 640.106 242.25 641.772 242.25C643.606 242.25 644.522 243.583 644.522 246.25V274C644.522 276.333 645.689 277.5 648.022 277.5H664.272C666.939 277.5 668.272 278.667 668.272 281C668.272 283.333 666.939 284.5 664.272 284.5H648.022C645.689 284.5 644.522 285.667 644.522 288V381.25C644.522 384.917 645.106 387.833 646.272 390C647.439 392 649.606 393 652.772 393C656.272 393 659.106 391.25 661.272 387.75C663.606 384.25 665.106 378.583 665.772 370.75C666.106 368.417 667.189 367.25 669.022 367.25C671.022 367.25 672.022 368.5 672.022 371C671.522 383.833 668.856 393.083 664.022 398.75C659.356 404.417 653.856 407.25 647.522 407.25ZM726.22 407.25C717.72 407.25 710.053 404.417 703.22 398.75C696.553 392.917 691.22 385 687.22 375C683.22 365 681.22 353.833 681.22 341.5C681.22 329.167 683.22 318.083 687.22 308.25C691.22 298.417 696.636 290.583 703.47 284.75C710.303 278.917 717.886 276 726.22 276C734.72 276 742.303 278.917 748.97 284.75C755.803 290.583 761.22 298.417 765.22 308.25C769.22 318.083 771.22 329.167 771.22 341.5C771.22 353.833 769.22 365 765.22 375C761.386 385 756.053 392.917 749.22 398.75C742.386 404.417 734.72 407.25 726.22 407.25ZM726.22 401C743.553 401 752.22 381.167 752.22 341.5C752.22 302 743.553 282.25 726.22 282.25C708.886 282.25 700.22 302 700.22 341.5C700.22 381.167 708.886 401 726.22 401ZM816.021 293.5C822.854 281.833 831.104 276 840.771 276C846.271 276 850.354 277.667 853.021 281C855.687 284.167 857.021 287.75 857.021 291.75C857.021 294.917 856.187 297.5 854.521 299.5C853.021 301.5 850.604 302.5 847.271 302.5C844.604 302.5 842.604 301.917 841.271 300.75C840.104 299.417 839.104 297.917 838.271 296.25C837.604 294.583 836.771 293.167 835.771 292C834.771 290.667 833.104 290 830.771 290C827.771 290 824.937 291.833 822.271 295.5C819.604 299 817.354 303.75 815.521 309.75C813.854 315.75 813.021 322.583 813.021 330.25V388.25C813.021 391.75 813.521 394.25 814.521 395.75C815.687 397.25 818.021 398.167 821.521 398.5L828.271 399.25C830.104 399.583 831.021 400.5 831.021 402C831.021 404 829.771 405 827.271 405H785.021C782.521 405 781.271 404.083 781.271 402.25C781.271 400.75 782.354 399.75 784.521 399.25L787.521 398.75C791.021 398.083 793.271 397.083 794.271 395.75C795.437 394.25 796.021 391.75 796.021 388.25V304.25C796.021 301.25 795.521 299.25 794.521 298.25C793.687 297.083 792.104 296.333 789.771 296L784.521 295.25C782.354 295.083 781.271 294.167 781.271 292.5C781.271 291.167 782.604 290.25 785.271 289.75C790.437 288.917 794.354 287.583 797.021 285.75C799.854 283.917 802.771 281.667 805.771 279C807.271 277.5 808.521 276.75 809.521 276.75C811.021 276.75 811.771 277.75 811.771 279.75V293.25C811.771 294.417 812.271 295.167 813.271 295.5C814.271 295.667 815.187 295 816.021 293.5Z" fill="#290102"/>
</svg>
